<mxfile host="app.diagrams.net" agent="Mozilla/5.0 (Windows NT 10.0; Win64; x64) AppleWebKit/537.36 (KHTML, like Gecko) Chrome/128.0.0.0 Safari/537.36" version="24.7.7">
  <diagram name="PÃ¡gina-1" id="0tA4hOhFpFcprGkIIdJV">
    <mxGraphModel dx="1434" dy="780" grid="1" gridSize="10" guides="1" tooltips="1" connect="1" arrows="1" fold="1" page="1" pageScale="1" pageWidth="827" pageHeight="1169" math="0" shadow="0">
      <root>
        <mxCell id="0" />
        <mxCell id="1" parent="0" />
        <mxCell id="8noKsGiqxMT957JXHHGG-3" value="" style="edgeStyle=orthogonalEdgeStyle;rounded=0;orthogonalLoop=1;jettySize=auto;html=1;" edge="1" parent="1" source="8noKsGiqxMT957JXHHGG-1" target="8noKsGiqxMT957JXHHGG-2">
          <mxGeometry relative="1" as="geometry" />
        </mxCell>
        <mxCell id="8noKsGiqxMT957JXHHGG-1" value="inicio" style="ellipse;whiteSpace=wrap;html=1;" vertex="1" parent="1">
          <mxGeometry x="340" y="90" width="120" height="80" as="geometry" />
        </mxCell>
        <mxCell id="8noKsGiqxMT957JXHHGG-5" value="" style="edgeStyle=orthogonalEdgeStyle;rounded=0;orthogonalLoop=1;jettySize=auto;html=1;" edge="1" parent="1" source="8noKsGiqxMT957JXHHGG-2" target="8noKsGiqxMT957JXHHGG-4">
          <mxGeometry relative="1" as="geometry" />
        </mxCell>
        <mxCell id="8noKsGiqxMT957JXHHGG-2" value="imprima(&quot;digite n1&quot;);&lt;div&gt;leia(n1);&lt;/div&gt;" style="shape=parallelogram;perimeter=parallelogramPerimeter;whiteSpace=wrap;html=1;fixedSize=1;" vertex="1" parent="1">
          <mxGeometry x="320" y="210" width="160" height="60" as="geometry" />
        </mxCell>
        <mxCell id="8noKsGiqxMT957JXHHGG-7" value="" style="edgeStyle=orthogonalEdgeStyle;rounded=0;orthogonalLoop=1;jettySize=auto;html=1;" edge="1" parent="1" source="8noKsGiqxMT957JXHHGG-4" target="8noKsGiqxMT957JXHHGG-6">
          <mxGeometry relative="1" as="geometry" />
        </mxCell>
        <mxCell id="8noKsGiqxMT957JXHHGG-4" value="imprima(&quot;digite n2&quot;);&lt;div&gt;leia(n2);&lt;/div&gt;" style="shape=parallelogram;perimeter=parallelogramPerimeter;whiteSpace=wrap;html=1;fixedSize=1;" vertex="1" parent="1">
          <mxGeometry x="320" y="310" width="160" height="60" as="geometry" />
        </mxCell>
        <mxCell id="8noKsGiqxMT957JXHHGG-9" value="" style="edgeStyle=orthogonalEdgeStyle;rounded=0;orthogonalLoop=1;jettySize=auto;html=1;" edge="1" parent="1" source="8noKsGiqxMT957JXHHGG-6" target="8noKsGiqxMT957JXHHGG-8">
          <mxGeometry relative="1" as="geometry" />
        </mxCell>
        <mxCell id="8noKsGiqxMT957JXHHGG-6" value="calcula total&lt;div&gt;&lt;br&gt;&lt;/div&gt;&lt;div&gt;nTotal = n1 * 2 + n2 / 2&lt;/div&gt;" style="whiteSpace=wrap;html=1;" vertex="1" parent="1">
          <mxGeometry x="340" y="410" width="120" height="60" as="geometry" />
        </mxCell>
        <mxCell id="8noKsGiqxMT957JXHHGG-11" value="" style="edgeStyle=orthogonalEdgeStyle;rounded=0;orthogonalLoop=1;jettySize=auto;html=1;" edge="1" parent="1" source="8noKsGiqxMT957JXHHGG-8" target="8noKsGiqxMT957JXHHGG-10">
          <mxGeometry relative="1" as="geometry" />
        </mxCell>
        <mxCell id="8noKsGiqxMT957JXHHGG-8" value="imprima(&quot;total: &quot;, nTotal)" style="shape=parallelogram;perimeter=parallelogramPerimeter;whiteSpace=wrap;html=1;fixedSize=1;" vertex="1" parent="1">
          <mxGeometry x="340" y="510" width="120" height="60" as="geometry" />
        </mxCell>
        <mxCell id="8noKsGiqxMT957JXHHGG-10" value="fim" style="ellipse;whiteSpace=wrap;html=1;" vertex="1" parent="1">
          <mxGeometry x="360" y="640" width="80" height="80" as="geometry" />
        </mxCell>
      </root>
    </mxGraphModel>
  </diagram>
</mxfile>
